<svg xmlns="http://www.w3.org/2000/svg" viewBox="0 0 610 1424" width="610" height="1424" role="img" aria-labelledby="t">
  <title id="t">PMDco datatransformation module: class hierarchy</title>
  <style>text{font-family:"Segoe UI","Helvetica Neue",Arial,sans-serif;font-size:14px;dominant-baseline:central;fill:#1f2937}.pmd{font-weight:700}.more{fill:#6b7280;font-style:italic}</style>
  <rect width="610" height="1424" rx="8" fill="#fff"/>
  <path d="M30 52.0H43" stroke="#8b9099" stroke-width="1" stroke-dasharray="1 2"/>
  <path d="M30 820.0H43" stroke="#8b9099" stroke-width="1" stroke-dasharray="1 2"/>
  <path d="M30 36.0V820.0" stroke="#8b9099" stroke-width="1" stroke-dasharray="1 2"/>
  <path d="M52 76.0H65" stroke="#8b9099" stroke-width="1" stroke-dasharray="1 2"/>
  <path d="M52 796.0H65" stroke="#8b9099" stroke-width="1" stroke-dasharray="1 2"/>
  <path d="M52 60.0V796.0" stroke="#8b9099" stroke-width="1" stroke-dasharray="1 2"/>
  <path d="M74 100.0H87" stroke="#8b9099" stroke-width="1" stroke-dasharray="1 2"/>
  <path d="M74 772.0H87" stroke="#8b9099" stroke-width="1" stroke-dasharray="1 2"/>
  <path d="M74 84.0V772.0" stroke="#8b9099" stroke-width="1" stroke-dasharray="1 2"/>
  <path d="M96 124.0H109" stroke="#8b9099" stroke-width="1" stroke-dasharray="1 2"/>
  <path d="M96 148.0H109" stroke="#8b9099" stroke-width="1" stroke-dasharray="1 2"/>
  <path d="M96 172.0H109" stroke="#8b9099" stroke-width="1" stroke-dasharray="1 2"/>
  <path d="M96 628.0H109" stroke="#8b9099" stroke-width="1" stroke-dasharray="1 2"/>
  <path d="M96 652.0H109" stroke="#8b9099" stroke-width="1" stroke-dasharray="1 2"/>
  <path d="M96 676.0H109" stroke="#8b9099" stroke-width="1" stroke-dasharray="1 2"/>
  <path d="M96 700.0H109" stroke="#8b9099" stroke-width="1" stroke-dasharray="1 2"/>
  <path d="M96 724.0H109" stroke="#8b9099" stroke-width="1" stroke-dasharray="1 2"/>
  <path d="M96 748.0H109" stroke="#8b9099" stroke-width="1" stroke-dasharray="1 2"/>
  <path d="M96 108.0V748.0" stroke="#8b9099" stroke-width="1" stroke-dasharray="1 2"/>
  <path d="M118 196.0H131" stroke="#8b9099" stroke-width="1" stroke-dasharray="1 2"/>
  <path d="M118 220.0H131" stroke="#8b9099" stroke-width="1" stroke-dasharray="1 2"/>
  <path d="M118 244.0H131" stroke="#8b9099" stroke-width="1" stroke-dasharray="1 2"/>
  <path d="M118 268.0H131" stroke="#8b9099" stroke-width="1" stroke-dasharray="1 2"/>
  <path d="M118 292.0H131" stroke="#8b9099" stroke-width="1" stroke-dasharray="1 2"/>
  <path d="M118 316.0H131" stroke="#8b9099" stroke-width="1" stroke-dasharray="1 2"/>
  <path d="M118 340.0H131" stroke="#8b9099" stroke-width="1" stroke-dasharray="1 2"/>
  <path d="M118 604.0H131" stroke="#8b9099" stroke-width="1" stroke-dasharray="1 2"/>
  <path d="M118 180.0V604.0" stroke="#8b9099" stroke-width="1" stroke-dasharray="1 2"/>
  <path d="M140 364.0H153" stroke="#8b9099" stroke-width="1" stroke-dasharray="1 2"/>
  <path d="M140 388.0H153" stroke="#8b9099" stroke-width="1" stroke-dasharray="1 2"/>
  <path d="M140 556.0H153" stroke="#8b9099" stroke-width="1" stroke-dasharray="1 2"/>
  <path d="M140 580.0H153" stroke="#8b9099" stroke-width="1" stroke-dasharray="1 2"/>
  <path d="M140 348.0V580.0" stroke="#8b9099" stroke-width="1" stroke-dasharray="1 2"/>
  <path d="M162 412.0H175" stroke="#8b9099" stroke-width="1" stroke-dasharray="1 2"/>
  <path d="M162 436.0H175" stroke="#8b9099" stroke-width="1" stroke-dasharray="1 2"/>
  <path d="M162 460.0H175" stroke="#8b9099" stroke-width="1" stroke-dasharray="1 2"/>
  <path d="M162 484.0H175" stroke="#8b9099" stroke-width="1" stroke-dasharray="1 2"/>
  <path d="M162 508.0H175" stroke="#8b9099" stroke-width="1" stroke-dasharray="1 2"/>
  <path d="M162 532.0H175" stroke="#8b9099" stroke-width="1" stroke-dasharray="1 2"/>
  <path d="M162 396.0V532.0" stroke="#8b9099" stroke-width="1" stroke-dasharray="1 2"/>
  <path d="M52 844.0H65" stroke="#8b9099" stroke-width="1" stroke-dasharray="1 2"/>
  <path d="M52 1300.0H65" stroke="#8b9099" stroke-width="1" stroke-dasharray="1 2"/>
  <path d="M52 1396.0H65" stroke="#8b9099" stroke-width="1" stroke-dasharray="1 2"/>
  <path d="M52 828.0V1396.0" stroke="#8b9099" stroke-width="1" stroke-dasharray="1 2"/>
  <path d="M74 868.0H87" stroke="#8b9099" stroke-width="1" stroke-dasharray="1 2"/>
  <path d="M74 1276.0H87" stroke="#8b9099" stroke-width="1" stroke-dasharray="1 2"/>
  <path d="M74 852.0V1276.0" stroke="#8b9099" stroke-width="1" stroke-dasharray="1 2"/>
  <path d="M96 892.0H109" stroke="#8b9099" stroke-width="1" stroke-dasharray="1 2"/>
  <path d="M96 1252.0H109" stroke="#8b9099" stroke-width="1" stroke-dasharray="1 2"/>
  <path d="M96 876.0V1252.0" stroke="#8b9099" stroke-width="1" stroke-dasharray="1 2"/>
  <path d="M118 916.0H131" stroke="#8b9099" stroke-width="1" stroke-dasharray="1 2"/>
  <path d="M118 1228.0H131" stroke="#8b9099" stroke-width="1" stroke-dasharray="1 2"/>
  <path d="M118 900.0V1228.0" stroke="#8b9099" stroke-width="1" stroke-dasharray="1 2"/>
  <path d="M140 940.0H153" stroke="#8b9099" stroke-width="1" stroke-dasharray="1 2"/>
  <path d="M140 964.0H153" stroke="#8b9099" stroke-width="1" stroke-dasharray="1 2"/>
  <path d="M140 1180.0H153" stroke="#8b9099" stroke-width="1" stroke-dasharray="1 2"/>
  <path d="M140 1204.0H153" stroke="#8b9099" stroke-width="1" stroke-dasharray="1 2"/>
  <path d="M140 924.0V1204.0" stroke="#8b9099" stroke-width="1" stroke-dasharray="1 2"/>
  <path d="M162 988.0H175" stroke="#8b9099" stroke-width="1" stroke-dasharray="1 2"/>
  <path d="M162 1012.0H175" stroke="#8b9099" stroke-width="1" stroke-dasharray="1 2"/>
  <path d="M162 1036.0H175" stroke="#8b9099" stroke-width="1" stroke-dasharray="1 2"/>
  <path d="M162 1060.0H175" stroke="#8b9099" stroke-width="1" stroke-dasharray="1 2"/>
  <path d="M162 1084.0H175" stroke="#8b9099" stroke-width="1" stroke-dasharray="1 2"/>
  <path d="M162 1108.0H175" stroke="#8b9099" stroke-width="1" stroke-dasharray="1 2"/>
  <path d="M162 1132.0H175" stroke="#8b9099" stroke-width="1" stroke-dasharray="1 2"/>
  <path d="M162 1156.0H175" stroke="#8b9099" stroke-width="1" stroke-dasharray="1 2"/>
  <path d="M162 972.0V1156.0" stroke="#8b9099" stroke-width="1" stroke-dasharray="1 2"/>
  <path d="M74 1324.0H87" stroke="#8b9099" stroke-width="1" stroke-dasharray="1 2"/>
  <path d="M74 1348.0H87" stroke="#8b9099" stroke-width="1" stroke-dasharray="1 2"/>
  <path d="M74 1372.0H87" stroke="#8b9099" stroke-width="1" stroke-dasharray="1 2"/>
  <path d="M74 1308.0V1372.0" stroke="#8b9099" stroke-width="1" stroke-dasharray="1 2"/>
  <polygon points="3.5,25.5 12.5,25.5 8,31.5" fill="#7b8088"/>
  <circle cx="30" cy="28.0" r="7" fill="#d4ac0d"/>
  <text x="42" y="28.0">entity</text>
  <polygon points="25.5,49.5 34.5,49.5 30,55.5" fill="#7b8088"/>
  <circle cx="52" cy="52.0" r="7" fill="#d4ac0d"/>
  <text x="64" y="52.0">continuant</text>
  <polygon points="47.5,73.5 56.5,73.5 52,79.5" fill="#7b8088"/>
  <circle cx="74" cy="76.0" r="7" fill="#d4ac0d"/>
  <text x="86" y="76.0">generically dependent continuant</text>
  <polygon points="69.5,97.5 78.5,97.5 74,103.5" fill="#7b8088"/>
  <circle cx="96" cy="100.0" r="7" fill="#d4ac0d"/>
  <text x="108" y="100.0">information content entity</text>
  <polygon points="93.5,119.5 99.5,124.0 93.5,128.5" fill="#7b8088"/>
  <circle cx="118" cy="124.0" r="7" fill="#d4ac0d"/>
  <text x="130" y="124.0">data item</text>
  <polygon points="93.5,143.5 99.5,148.0 93.5,152.5" fill="#7b8088"/>
  <circle cx="118" cy="148.0" r="7" fill="#d4ac0d"/>
  <text x="130" y="148.0">datum label</text>
  <polygon points="91.5,169.5 100.5,169.5 96,175.5" fill="#7b8088"/>
  <circle cx="118" cy="172.0" r="7" fill="#d4ac0d"/>
  <text x="130" y="172.0">directive information entity</text>
  <circle cx="140" cy="196.0" r="7" fill="#d4ac0d"/>
  <text x="152" y="196.0">action specification</text>
  <circle cx="140" cy="220.0" r="7" fill="#d4ac0d"/>
  <text x="152" y="220.0">data format specification</text>
  <circle cx="140" cy="244.0" r="7" fill="#d4ac0d"/>
  <text class="pmd" x="152" y="244.0">device specification</text>
  <circle cx="140" cy="268.0" r="7" fill="#d4ac0d"/>
  <text class="pmd" x="152" y="268.0">material specification</text>
  <circle cx="140" cy="292.0" r="7" fill="#d4ac0d"/>
  <text x="152" y="292.0">objective specification</text>
  <polygon points="115.5,311.5 121.5,316.0 115.5,320.5" fill="#7b8088"/>
  <circle cx="140" cy="316.0" r="7" fill="#d4ac0d"/>
  <text class="pmd" x="152" y="316.0">parameter specification</text>
  <polygon points="113.5,337.5 122.5,337.5 118,343.5" fill="#7b8088"/>
  <circle cx="140" cy="340.0" r="7" fill="#d4ac0d"/>
  <text x="152" y="340.0">plan specification</text>
  <circle cx="162" cy="364.0" r="7" fill="#d4ac0d"/>
  <text class="pmd" x="174" y="364.0">recipe</text>
  <polygon points="135.5,385.5 144.5,385.5 140,391.5" fill="#7b8088"/>
  <circle cx="162" cy="388.0" r="7" fill="#d4ac0d"/>
  <text class="pmd" x="174" y="388.0">simulation method specification</text>
  <circle cx="184" cy="412.0" r="7" fill="#d4ac0d"/>
  <text class="pmd" x="196" y="412.0">continuous simulation</text>
  <circle cx="184" cy="436.0" r="7" fill="#d4ac0d"/>
  <text class="pmd" x="196" y="436.0">deterministic simulation</text>
  <circle cx="184" cy="460.0" r="7" fill="#d4ac0d"/>
  <text class="pmd" x="196" y="460.0">discrete-event simulation</text>
  <circle cx="184" cy="484.0" r="7" fill="#d4ac0d"/>
  <text class="pmd" x="196" y="484.0">hybrid simulation</text>
  <circle cx="184" cy="508.0" r="7" fill="#d4ac0d"/>
  <text class="pmd" x="196" y="508.0">physical simulation</text>
  <circle cx="184" cy="532.0" r="7" fill="#d4ac0d"/>
  <text class="pmd" x="196" y="532.0">stochastic simulation</text>
  <polygon points="137.5,551.5 143.5,556.0 137.5,560.5" fill="#7b8088"/>
  <circle cx="162" cy="556.0" r="7" fill="#d4ac0d"/>
  <text x="174" y="556.0">software</text>
  <circle cx="162" cy="580.0" r="7" fill="#d4ac0d"/>
  <text class="pmd" x="174" y="580.0">workflow definition</text>
  <circle cx="140" cy="604.0" r="7" fill="#d4ac0d"/>
  <text class="pmd" x="152" y="604.0">specification datum</text>
  <polygon points="93.5,623.5 99.5,628.0 93.5,632.5" fill="#7b8088"/>
  <circle cx="118" cy="628.0" r="7" fill="#d4ac0d"/>
  <text x="130" y="628.0">document</text>
  <circle cx="118" cy="652.0" r="7" fill="#d4ac0d"/>
  <path d="M114.5 650.5h7M114.5 653.5h7" stroke="#fff" stroke-width="1.4"/>
  <text x="130" y="652.0">identifier</text>
  <polygon points="93.5,671.5 99.5,676.0 93.5,680.5" fill="#7b8088"/>
  <circle cx="118" cy="676.0" r="7" fill="#d4ac0d"/>
  <text x="130" y="676.0">symbol</text>
  <polygon points="93.5,695.5 99.5,700.0 93.5,704.5" fill="#7b8088"/>
  <circle cx="118" cy="700.0" r="7" fill="#d4ac0d"/>
  <text x="130" y="700.0">textual entity</text>
  <circle cx="118" cy="724.0" r="7" fill="#d4ac0d"/>
  <text class="pmd" x="130" y="724.0">uncertainty</text>
  <polygon points="93.5,743.5 99.5,748.0 93.5,752.5" fill="#7b8088"/>
  <circle cx="118" cy="748.0" r="7" fill="#d4ac0d"/>
  <text x="130" y="748.0">value specification</text>
  <text class="more" x="90" y="772.0">+1 more</text>
  <text class="more" x="68" y="796.0">+2 more</text>
  <polygon points="25.5,817.5 34.5,817.5 30,823.5" fill="#7b8088"/>
  <circle cx="52" cy="820.0" r="7" fill="#d4ac0d"/>
  <text x="64" y="820.0">occurrent</text>
  <polygon points="47.5,841.5 56.5,841.5 52,847.5" fill="#7b8088"/>
  <circle cx="74" cy="844.0" r="7" fill="#d4ac0d"/>
  <text x="86" y="844.0">process</text>
  <polygon points="69.5,865.5 78.5,865.5 74,871.5" fill="#7b8088"/>
  <circle cx="96" cy="868.0" r="7" fill="#d4ac0d"/>
  <text x="108" y="868.0">planned process</text>
  <polygon points="91.5,889.5 100.5,889.5 96,895.5" fill="#7b8088"/>
  <circle cx="118" cy="892.0" r="7" fill="#d4ac0d"/>
  <text x="130" y="892.0">completely executed planned process</text>
  <polygon points="113.5,913.5 122.5,913.5 118,919.5" fill="#7b8088"/>
  <circle cx="140" cy="916.0" r="7" fill="#d4ac0d"/>
  <text class="pmd" x="152" y="916.0">computing process</text>
  <circle cx="162" cy="940.0" r="7" fill="#d4ac0d"/>
  <text class="pmd" x="174" y="940.0">analytical calculation</text>
  <polygon points="135.5,961.5 144.5,961.5 140,967.5" fill="#7b8088"/>
  <circle cx="162" cy="964.0" r="7" fill="#d4ac0d"/>
  <text class="pmd" x="174" y="964.0">simulation process</text>
  <circle cx="184" cy="988.0" r="7" fill="#d4ac0d"/>
  <text class="pmd" x="196" y="988.0">ab initio molecular dynamics simulation</text>
  <polygon points="159.5,1007.5 165.5,1012.0 159.5,1016.5" fill="#7b8088"/>
  <circle cx="184" cy="1012.0" r="7" fill="#d4ac0d"/>
  <text class="pmd" x="196" y="1012.0">deep learning</text>
  <circle cx="184" cy="1036.0" r="7" fill="#d4ac0d"/>
  <text class="pmd" x="196" y="1036.0">empirical potential molecular dynamics simulation</text>
  <circle cx="184" cy="1060.0" r="7" fill="#d4ac0d"/>
  <text class="pmd" x="196" y="1060.0">high throughput simulation</text>
  <polygon points="159.5,1079.5 165.5,1084.0 159.5,1088.5" fill="#7b8088"/>
  <circle cx="184" cy="1084.0" r="7" fill="#d4ac0d"/>
  <text class="pmd" x="196" y="1084.0">machine learning</text>
  <polygon points="159.5,1103.5 165.5,1108.0 159.5,1112.5" fill="#7b8088"/>
  <circle cx="184" cy="1108.0" r="7" fill="#d4ac0d"/>
  <text class="pmd" x="196" y="1108.0">monte carlo simulation</text>
  <polygon points="159.5,1127.5 165.5,1132.0 159.5,1136.5" fill="#7b8088"/>
  <circle cx="184" cy="1132.0" r="7" fill="#d4ac0d"/>
  <text class="pmd" x="196" y="1132.0">multiscale simulation</text>
  <circle cx="184" cy="1156.0" r="7" fill="#d4ac0d"/>
  <text class="pmd" x="196" y="1156.0">structural optimization simulation</text>
  <circle cx="162" cy="1180.0" r="7" fill="#d4ac0d"/>
  <text class="pmd" x="174" y="1180.0">workflow node</text>
  <circle cx="162" cy="1204.0" r="7" fill="#d4ac0d"/>
  <text class="pmd" x="174" y="1204.0">workflow run</text>
  <text class="more" x="134" y="1228.0">+9 more</text>
  <text class="more" x="112" y="1252.0">+3 more</text>
  <text class="more" x="90" y="1276.0">+38 more</text>
  <polygon points="47.5,1297.5 56.5,1297.5 52,1303.5" fill="#7b8088"/>
  <circle cx="74" cy="1300.0" r="7" fill="#d4ac0d"/>
  <text x="86" y="1300.0">process boundary</text>
  <circle cx="96" cy="1324.0" r="7" fill="#d4ac0d"/>
  <text class="pmd" x="108" y="1324.0">failure</text>
  <circle cx="96" cy="1348.0" r="7" fill="#d4ac0d"/>
  <text class="pmd" x="108" y="1348.0">input assignment</text>
  <circle cx="96" cy="1372.0" r="7" fill="#d4ac0d"/>
  <text class="pmd" x="108" y="1372.0">output assignment</text>
  <text class="more" x="68" y="1396.0">+3 more</text>
</svg>
