<svg xmlns="http://www.w3.org/2000/svg" viewBox="0 0 406 1088" width="406" height="1088" role="img" aria-labelledby="t">
  <title id="t">PMDco qualities module: class hierarchy</title>
  <style>text{font-family:"Segoe UI","Helvetica Neue",Arial,sans-serif;font-size:14px;dominant-baseline:central;fill:#1f2937}.pmd{font-weight:700}.more{fill:#6b7280;font-style:italic}</style>
  <rect width="406" height="1088" rx="8" fill="#fff"/>
  <path d="M30 52.0H43" stroke="#8b9099" stroke-width="1" stroke-dasharray="1 2"/>
  <path d="M30 1060.0H43" stroke="#8b9099" stroke-width="1" stroke-dasharray="1 2"/>
  <path d="M30 36.0V1060.0" stroke="#8b9099" stroke-width="1" stroke-dasharray="1 2"/>
  <path d="M52 76.0H65" stroke="#8b9099" stroke-width="1" stroke-dasharray="1 2"/>
  <path d="M52 1036.0H65" stroke="#8b9099" stroke-width="1" stroke-dasharray="1 2"/>
  <path d="M52 60.0V1036.0" stroke="#8b9099" stroke-width="1" stroke-dasharray="1 2"/>
  <path d="M74 100.0H87" stroke="#8b9099" stroke-width="1" stroke-dasharray="1 2"/>
  <path d="M74 844.0H87" stroke="#8b9099" stroke-width="1" stroke-dasharray="1 2"/>
  <path d="M74 1012.0H87" stroke="#8b9099" stroke-width="1" stroke-dasharray="1 2"/>
  <path d="M74 84.0V1012.0" stroke="#8b9099" stroke-width="1" stroke-dasharray="1 2"/>
  <path d="M96 124.0H109" stroke="#8b9099" stroke-width="1" stroke-dasharray="1 2"/>
  <path d="M96 148.0H109" stroke="#8b9099" stroke-width="1" stroke-dasharray="1 2"/>
  <path d="M96 388.0H109" stroke="#8b9099" stroke-width="1" stroke-dasharray="1 2"/>
  <path d="M96 412.0H109" stroke="#8b9099" stroke-width="1" stroke-dasharray="1 2"/>
  <path d="M96 436.0H109" stroke="#8b9099" stroke-width="1" stroke-dasharray="1 2"/>
  <path d="M96 460.0H109" stroke="#8b9099" stroke-width="1" stroke-dasharray="1 2"/>
  <path d="M96 484.0H109" stroke="#8b9099" stroke-width="1" stroke-dasharray="1 2"/>
  <path d="M96 508.0H109" stroke="#8b9099" stroke-width="1" stroke-dasharray="1 2"/>
  <path d="M96 700.0H109" stroke="#8b9099" stroke-width="1" stroke-dasharray="1 2"/>
  <path d="M96 724.0H109" stroke="#8b9099" stroke-width="1" stroke-dasharray="1 2"/>
  <path d="M96 748.0H109" stroke="#8b9099" stroke-width="1" stroke-dasharray="1 2"/>
  <path d="M96 772.0H109" stroke="#8b9099" stroke-width="1" stroke-dasharray="1 2"/>
  <path d="M96 796.0H109" stroke="#8b9099" stroke-width="1" stroke-dasharray="1 2"/>
  <path d="M96 820.0H109" stroke="#8b9099" stroke-width="1" stroke-dasharray="1 2"/>
  <path d="M96 108.0V820.0" stroke="#8b9099" stroke-width="1" stroke-dasharray="1 2"/>
  <path d="M118 172.0H131" stroke="#8b9099" stroke-width="1" stroke-dasharray="1 2"/>
  <path d="M118 244.0H131" stroke="#8b9099" stroke-width="1" stroke-dasharray="1 2"/>
  <path d="M118 268.0H131" stroke="#8b9099" stroke-width="1" stroke-dasharray="1 2"/>
  <path d="M118 292.0H131" stroke="#8b9099" stroke-width="1" stroke-dasharray="1 2"/>
  <path d="M118 316.0H131" stroke="#8b9099" stroke-width="1" stroke-dasharray="1 2"/>
  <path d="M118 340.0H131" stroke="#8b9099" stroke-width="1" stroke-dasharray="1 2"/>
  <path d="M118 364.0H131" stroke="#8b9099" stroke-width="1" stroke-dasharray="1 2"/>
  <path d="M118 156.0V364.0" stroke="#8b9099" stroke-width="1" stroke-dasharray="1 2"/>
  <path d="M140 196.0H153" stroke="#8b9099" stroke-width="1" stroke-dasharray="1 2"/>
  <path d="M140 220.0H153" stroke="#8b9099" stroke-width="1" stroke-dasharray="1 2"/>
  <path d="M140 180.0V220.0" stroke="#8b9099" stroke-width="1" stroke-dasharray="1 2"/>
  <path d="M118 532.0H131" stroke="#8b9099" stroke-width="1" stroke-dasharray="1 2"/>
  <path d="M118 556.0H131" stroke="#8b9099" stroke-width="1" stroke-dasharray="1 2"/>
  <path d="M118 580.0H131" stroke="#8b9099" stroke-width="1" stroke-dasharray="1 2"/>
  <path d="M118 604.0H131" stroke="#8b9099" stroke-width="1" stroke-dasharray="1 2"/>
  <path d="M118 628.0H131" stroke="#8b9099" stroke-width="1" stroke-dasharray="1 2"/>
  <path d="M118 652.0H131" stroke="#8b9099" stroke-width="1" stroke-dasharray="1 2"/>
  <path d="M118 676.0H131" stroke="#8b9099" stroke-width="1" stroke-dasharray="1 2"/>
  <path d="M118 516.0V676.0" stroke="#8b9099" stroke-width="1" stroke-dasharray="1 2"/>
  <path d="M96 868.0H109" stroke="#8b9099" stroke-width="1" stroke-dasharray="1 2"/>
  <path d="M96 988.0H109" stroke="#8b9099" stroke-width="1" stroke-dasharray="1 2"/>
  <path d="M96 852.0V988.0" stroke="#8b9099" stroke-width="1" stroke-dasharray="1 2"/>
  <path d="M118 892.0H131" stroke="#8b9099" stroke-width="1" stroke-dasharray="1 2"/>
  <path d="M118 916.0H131" stroke="#8b9099" stroke-width="1" stroke-dasharray="1 2"/>
  <path d="M118 940.0H131" stroke="#8b9099" stroke-width="1" stroke-dasharray="1 2"/>
  <path d="M118 964.0H131" stroke="#8b9099" stroke-width="1" stroke-dasharray="1 2"/>
  <path d="M118 876.0V964.0" stroke="#8b9099" stroke-width="1" stroke-dasharray="1 2"/>
  <polygon points="3.5,25.5 12.5,25.5 8,31.5" fill="#7b8088"/>
  <circle cx="30" cy="28.0" r="7" fill="#d4ac0d"/>
  <text x="42" y="28.0">entity</text>
  <polygon points="25.5,49.5 34.5,49.5 30,55.5" fill="#7b8088"/>
  <circle cx="52" cy="52.0" r="7" fill="#d4ac0d"/>
  <text x="64" y="52.0">continuant</text>
  <polygon points="47.5,73.5 56.5,73.5 52,79.5" fill="#7b8088"/>
  <circle cx="74" cy="76.0" r="7" fill="#d4ac0d"/>
  <text x="86" y="76.0">specifically dependent continuant</text>
  <polygon points="69.5,97.5 78.5,97.5 74,103.5" fill="#7b8088"/>
  <circle cx="96" cy="100.0" r="7" fill="#d4ac0d"/>
  <text class="pmd" x="108" y="100.0">property</text>
  <polygon points="93.5,119.5 99.5,124.0 93.5,128.5" fill="#7b8088"/>
  <circle cx="118" cy="124.0" r="7" fill="#d4ac0d"/>
  <text class="pmd" x="130" y="124.0">acoustic property</text>
  <polygon points="91.5,145.5 100.5,145.5 96,151.5" fill="#7b8088"/>
  <circle cx="118" cy="148.0" r="7" fill="#d4ac0d"/>
  <text class="pmd" x="130" y="148.0">characteristic material property</text>
  <polygon points="113.5,169.5 122.5,169.5 118,175.5" fill="#7b8088"/>
  <circle cx="140" cy="172.0" r="7" fill="#d4ac0d"/>
  <text class="pmd" x="152" y="172.0">composition</text>
  <circle cx="162" cy="196.0" r="7" fill="#d4ac0d"/>
  <text class="pmd" x="174" y="196.0">chemical composition</text>
  <circle cx="162" cy="220.0" r="7" fill="#d4ac0d"/>
  <text class="pmd" x="174" y="220.0">inorganic composition</text>
  <polygon points="115.5,239.5 121.5,244.0 115.5,248.5" fill="#7b8088"/>
  <circle cx="140" cy="244.0" r="7" fill="#d4ac0d"/>
  <text class="pmd" x="152" y="244.0">grain size</text>
  <polygon points="115.5,263.5 121.5,268.0 115.5,272.5" fill="#7b8088"/>
  <circle cx="140" cy="268.0" r="7" fill="#d4ac0d"/>
  <text class="pmd" x="152" y="268.0">hardness</text>
  <circle cx="140" cy="292.0" r="7" fill="#d4ac0d"/>
  <text class="pmd" x="152" y="292.0">porosity</text>
  <polygon points="115.5,311.5 121.5,316.0 115.5,320.5" fill="#7b8088"/>
  <circle cx="140" cy="316.0" r="7" fill="#d4ac0d"/>
  <text class="pmd" x="152" y="316.0">strength</text>
  <polygon points="115.5,335.5 121.5,340.0 115.5,344.5" fill="#7b8088"/>
  <circle cx="140" cy="340.0" r="7" fill="#d4ac0d"/>
  <text class="pmd" x="152" y="340.0">toughness</text>
  <text class="more" x="134" y="364.0">+25 more</text>
  <polygon points="93.5,383.5 99.5,388.0 93.5,392.5" fill="#7b8088"/>
  <circle cx="118" cy="388.0" r="7" fill="#d4ac0d"/>
  <text class="pmd" x="130" y="388.0">characterization property</text>
  <polygon points="93.5,407.5 99.5,412.0 93.5,416.5" fill="#7b8088"/>
  <circle cx="118" cy="412.0" r="7" fill="#d4ac0d"/>
  <text class="pmd" x="130" y="412.0">chemical property</text>
  <polygon points="93.5,431.5 99.5,436.0 93.5,440.5" fill="#7b8088"/>
  <circle cx="118" cy="436.0" r="7" fill="#d4ac0d"/>
  <text class="pmd" x="130" y="436.0">classical mechanics property</text>
  <polygon points="93.5,455.5 99.5,460.0 93.5,464.5" fill="#7b8088"/>
  <circle cx="118" cy="460.0" r="7" fill="#d4ac0d"/>
  <text class="pmd" x="130" y="460.0">datatransformation property</text>
  <polygon points="93.5,479.5 99.5,484.0 93.5,488.5" fill="#7b8088"/>
  <circle cx="118" cy="484.0" r="7" fill="#d4ac0d"/>
  <text class="pmd" x="130" y="484.0">electromagnetic property</text>
  <polygon points="91.5,505.5 100.5,505.5 96,511.5" fill="#7b8088"/>
  <circle cx="118" cy="508.0" r="7" fill="#d4ac0d"/>
  <text class="pmd" x="130" y="508.0">facetted property</text>
  <polygon points="115.5,527.5 121.5,532.0 115.5,536.5" fill="#7b8088"/>
  <circle cx="140" cy="532.0" r="7" fill="#d4ac0d"/>
  <text class="pmd" x="152" y="532.0">aggregated property</text>
  <circle cx="140" cy="556.0" r="7" fill="#d4ac0d"/>
  <path d="M136.5 554.5h7M136.5 557.5h7" stroke="#fff" stroke-width="1.4"/>
  <text class="pmd" x="152" y="556.0">extensive property</text>
  <circle cx="140" cy="580.0" r="7" fill="#d4ac0d"/>
  <path d="M136.5 578.5h7M136.5 581.5h7" stroke="#fff" stroke-width="1.4"/>
  <text class="pmd" x="152" y="580.0">intensive property</text>
  <polygon points="115.5,599.5 121.5,604.0 115.5,608.5" fill="#7b8088"/>
  <circle cx="140" cy="604.0" r="7" fill="#d4ac0d"/>
  <text class="pmd" x="152" y="604.0">length scale property</text>
  <polygon points="115.5,623.5 121.5,628.0 115.5,632.5" fill="#7b8088"/>
  <circle cx="140" cy="628.0" r="7" fill="#d4ac0d"/>
  <text class="pmd" x="152" y="628.0">normalized property</text>
  <polygon points="115.5,647.5 121.5,652.0 115.5,656.5" fill="#7b8088"/>
  <circle cx="140" cy="652.0" r="7" fill="#d4ac0d"/>
  <text class="pmd" x="152" y="652.0">property by bearer</text>
  <polygon points="115.5,671.5 121.5,676.0 115.5,680.5" fill="#7b8088"/>
  <circle cx="140" cy="676.0" r="7" fill="#d4ac0d"/>
  <text class="pmd" x="152" y="676.0">symmetry property</text>
  <polygon points="93.5,695.5 99.5,700.0 93.5,704.5" fill="#7b8088"/>
  <circle cx="118" cy="700.0" r="7" fill="#d4ac0d"/>
  <text class="pmd" x="130" y="700.0">fluid mechanics property</text>
  <polygon points="93.5,719.5 99.5,724.0 93.5,728.5" fill="#7b8088"/>
  <circle cx="118" cy="724.0" r="7" fill="#d4ac0d"/>
  <text class="pmd" x="130" y="724.0">manufacturing property</text>
  <polygon points="93.5,743.5 99.5,748.0 93.5,752.5" fill="#7b8088"/>
  <circle cx="118" cy="748.0" r="7" fill="#d4ac0d"/>
  <text class="pmd" x="130" y="748.0">optical property</text>
  <circle cx="118" cy="772.0" r="7" fill="#d4ac0d"/>
  <text class="pmd" x="130" y="772.0">statistical mechanics property</text>
  <polygon points="93.5,791.5 99.5,796.0 93.5,800.5" fill="#7b8088"/>
  <circle cx="118" cy="796.0" r="7" fill="#d4ac0d"/>
  <text class="pmd" x="130" y="796.0">thermodynamic property</text>
  <polygon points="93.5,815.5 99.5,820.0 93.5,824.5" fill="#7b8088"/>
  <circle cx="118" cy="820.0" r="7" fill="#d4ac0d"/>
  <text class="pmd" x="130" y="820.0">unclassified property</text>
  <polygon points="69.5,841.5 78.5,841.5 74,847.5" fill="#7b8088"/>
  <circle cx="96" cy="844.0" r="7" fill="#d4ac0d"/>
  <text x="108" y="844.0">quality</text>
  <polygon points="91.5,865.5 100.5,865.5 96,871.5" fill="#7b8088"/>
  <circle cx="118" cy="868.0" r="7" fill="#d4ac0d"/>
  <text class="pmd" x="130" y="868.0">fundamental quality of system</text>
  <circle cx="140" cy="892.0" r="7" fill="#d4ac0d"/>
  <text class="pmd" x="152" y="892.0">internal energy</text>
  <circle cx="140" cy="916.0" r="7" fill="#d4ac0d"/>
  <text class="pmd" x="152" y="916.0">mass</text>
  <circle cx="140" cy="940.0" r="7" fill="#d4ac0d"/>
  <text class="pmd" x="152" y="940.0">member count</text>
  <circle cx="140" cy="964.0" r="7" fill="#d4ac0d"/>
  <text class="pmd" x="152" y="964.0">volume</text>
  <text class="more" x="112" y="988.0">+19 more</text>
  <polygon points="71.5,1007.5 77.5,1012.0 71.5,1016.5" fill="#7b8088"/>
  <circle cx="96" cy="1012.0" r="7" fill="#d4ac0d"/>
  <text x="108" y="1012.0">realizable entity</text>
  <text class="more" x="68" y="1036.0">+2 more</text>
  <text class="more" x="46" y="1060.0">+1 more</text>
</svg>
