<?xml version="1.0" encoding="utf-8"?>
<!-- Generator: Adobe Illustrator 24.0.0, SVG Export Plug-In . SVG Version: 6.00 Build 0)  -->
<svg version="1.1" id="Ebene_1" xmlns="http://www.w3.org/2000/svg" xmlns:xlink="http://www.w3.org/1999/xlink" x="0px" y="0px"
	 viewBox="0 0 160.7 91.4" style="enable-background:new 0 0 160.7 91.4;" xml:space="preserve">
<style type="text/css">
	.st0{fill:#588644;}
	.st1{fill:#045291;}
	.st2{opacity:0.6;fill:url(#SVGID_1_);enable-background:new    ;}
	.st3{opacity:0.6;fill:url(#SVGID_2_);enable-background:new    ;}
	.st4{fill:#D4D3D3;}
	.st5{fill:#7D9A63;}
</style>
<title>Zeichenfläche 1 Kopie 2</title>
<g>
	<g>
		<path class="st0" d="M0,91.1V69.4h4.1l3.1,15.9l2.9-15.9h4.1v21.7h-2.9V83l0.1-7.4L8.5,91H5.9l-3-15.4L3,83v8.1L0,91.1z"/>
		<path class="st0" d="M16.5,91.1l3.1-21.7H24l3.3,21.7h-3.1l-0.5-3.9h-3.5l-0.5,3.9H16.5z M23.3,84.6l-1.5-10.9h0l-1.3,10.9H23.3z"
			/>
		<path class="st0" d="M30.4,91.1V72.3h-2.5v-2.9h8.3v2.9h-2.4v18.9L30.4,91.1z"/>
		<path class="st0" d="M38,91.1V69.4h7.3v2.8h-4v6.3h3.8v2.8h-3.8v6.9h4.1v2.8L38,91.1z"/>
		<path class="st0" d="M52.4,80.9h-1.1v10.2h-3.3V69.4h5.5c0.9-0.1,1.8,0.2,2.5,0.7c0.6,0.5,1,1.2,1.1,1.9c0.2,1.1,0.3,2.1,0.3,3.2
			c0,1-0.1,2-0.4,3c-0.3,0.7-0.8,1.2-1.6,1.4c0.8,0.2,1.4,0.7,1.6,1.5c0.4,1.8,0.5,3.7,0.4,5.5c-0.1,1.5,0,3,0.1,4.5h-3.3
			c-0.1-0.2-0.1-2.8-0.1-7.8c0.1-0.7-0.1-1.3-0.3-1.9C53.5,81,52.9,80.8,52.4,80.9z M51.4,78.3h1.3c0.3,0,0.7-0.1,0.9-0.3
			c0.2-0.3,0.4-0.6,0.4-1c0.1-0.7,0.1-1.4,0.1-2.1v-0.1c0.1-0.8,0-1.6-0.3-2.3c-0.2-0.4-0.7-0.6-1.4-0.6h-1.1V78.3z"/>
		<path class="st0" d="M60.6,91.1V69.4H64v21.7L60.6,91.1z"/>
		<path class="st0" d="M66.3,91.1l3.1-21.7h4.4l3.3,21.7H74l-0.5-3.9H70l-0.5,3.9L66.3,91.1z M73.1,84.6l-1.4-10.9h-0.1l-1.3,10.9
			L73.1,84.6z"/>
		<path class="st0" d="M79.4,91.1V69.4h3.3v18.9h4.2v2.8L79.4,91.1z"/>
		<g>
			<path class="st1" d="M89.8,91.2V69h5c1.3-0.1,2.7,0.4,3.5,1.4c0.8,1.3,1.2,2.7,1.1,4.2v10c0.1,1.7-0.3,3.4-1.1,4.9
				c-0.9,1.1-2.3,1.7-3.7,1.6L89.8,91.2z M93.1,88.5h1.1c0.5,0,1-0.2,1.4-0.6c0.3-0.7,0.5-1.4,0.4-2.2V74.8c0.1-0.8-0.1-1.7-0.4-2.4
				c-0.3-0.5-0.9-0.8-1.4-0.7h-1L93.1,88.5z"/>
			<path class="st1" d="M103.4,91.2V69h3.4v22.1H103.4z"/>
			<path class="st1" d="M115.1,91.4c-1.3,0-2.5-0.6-3.3-1.6c-0.9-1.5-1.3-3.3-1.2-5.1v-9.6c-0.1-1.6,0.3-3.3,1.2-4.7
				c0.9-1.1,2.4-1.7,3.8-1.6c2.2,0,3.6,0.8,4.1,2.4c0.4,1.3,0.6,2.6,0.5,4v1.6h-3.1v-2.3c0-0.7-0.1-1.5-0.3-2.1
				c-0.2-0.4-0.7-0.7-1.2-0.6c-0.5,0-1,0.3-1.2,0.7c-0.3,0.8-0.4,1.7-0.4,2.6v9.6c0,1,0.1,2,0.3,3c0.2,0.5,0.7,0.9,1.3,0.8
				c0.6,0,1.1-0.4,1.3-0.9c0.3-1,0.5-2,0.4-3.1v-3h-1.7v-2.4h4.7v12.1h-1.5l-0.5-2.2c-0.2,0.7-0.6,1.3-1.2,1.8
				C116.5,91.2,115.8,91.4,115.1,91.4z"/>
			<path class="st1" d="M124.5,91.2V69h3.4v22.1H124.5z"/>
			<path class="st1" d="M133.1,91.2V71.9h-2.6V69h8.4v2.9h-2.5v19.2L133.1,91.2z"/>
			<path class="st1" d="M139.8,91.2l3.2-22.1h4.4l3.4,22.1h-3.1l-0.5-4h-3.6l-0.5,4H139.8z M146.7,84.5l-1.5-11.1h-0.1l-1.4,11.1
				L146.7,84.5z"/>
			<path class="st1" d="M153,91.2V69h3.4v19.2h4.2v2.9H153z"/>
		</g>
		<rect x="22.6" y="15.2" class="st1" width="5.3" height="5.3"/>
		<rect x="14.5" y="30.6" class="st1" width="5" height="5"/>
		<rect x="27.1" y="31.4" class="st1" width="3.9" height="3.9"/>
		<rect x="40.5" y="26.6" class="st1" width="3.1" height="3.1"/>
		<rect x="37.2" y="38.1" class="st1" width="2.8" height="2.8"/>
		<rect x="37.7" y="47.6" class="st1" width="3.1" height="3.1"/>
		<rect x="36.9" y="8.4" class="st1" width="3.1" height="3.1"/>
		<rect x="31.3" y="23.6" class="st1" width="4.2" height="4.2"/>
		<rect x="20.4" y="38.1" class="st1" width="4.2" height="4.2"/>
		
			<linearGradient id="SVGID_1_" gradientUnits="userSpaceOnUse" x1="98.76" y1="72.3197" x2="135.12" y2="72.3197" gradientTransform="matrix(1 0 0 -1 0 92.0556)">
			<stop  offset="0" style="stop-color:#588644;stop-opacity:0"/>
			<stop  offset="0.61" style="stop-color:#588644"/>
		</linearGradient>
		<path class="st2" d="M116.4,15.7c0,0-9,9-17.7,8.3l0,0l1.3,2.7c8,1.6,21.5,1.1,21.5,1.1l13.6-1.6l-6.1-14.6L116.4,15.7z"/>
		
			<linearGradient id="SVGID_2_" gradientUnits="userSpaceOnUse" x1="98.76" y1="76.7431" x2="134.83" y2="76.7431" gradientTransform="matrix(1 0 0 -1 0 92.0556)">
			<stop  offset="0" style="stop-color:#7D9A63;stop-opacity:0"/>
			<stop  offset="0.63" style="stop-color:#7D9A63"/>
		</linearGradient>
		<path class="st3" d="M129.1,11.6l5.8-5L121.5,11c0,0-14.1,11.7-20.3,11.8L98.8,24l0,0c9.1,0.7,17.7-8.3,17.7-8.3L129.1,11.6z"/>
		<polygon class="st0" points="116.4,15.7 121.5,27.8 135.1,26.2 129.1,11.6 		"/>
		<polygon class="st0" points="135.1,26.2 139.9,19.5 134.8,6.6 129.1,11.6 		"/>
		<polygon class="st4" points="135.1,26.2 139.9,19.5 134.8,6.6 129.1,11.6 		"/>
		<polygon class="st5" points="129.1,11.6 134.8,6.6 121.5,11 116.4,15.7 		"/>
		<g>
			<polygon class="st1" points="57.2,20.6 65.4,21.5 64.9,12.8 56.5,12 			"/>
			<polygon class="st1" points="77.1,22.7 76.7,13.9 68.1,13.2 68.7,21.8 			"/>
			<polygon class="st1" points="70.1,46.9 70.5,54.7 78.6,55.7 78.2,47.8 			"/>
			<polygon class="st1" points="80.9,37.3 81.3,45.4 89.6,46.4 89.4,38.2 			"/>
			<polygon class="st1" points="69.5,35.9 69.9,44 78.1,45 77.7,36.8 			"/>
			<polygon class="st1" points="89.3,35.3 89,26.8 80.4,26 80.8,34.4 			"/>
			<polygon class="st1" points="81.4,48.3 81.8,56.2 90,57.2 89.7,49.2 			"/>
			<polygon class="st1" points="77.6,34 77.2,25.5 68.8,24.7 69.3,33.1 			"/>
			<polygon class="st1" points="58.9,45.5 59.5,53.2 67.3,54.2 66.9,46.4 			"/>
			<polygon class="st1" points="66.1,32.7 65.6,24.3 57.4,23.5 58,31.8 			"/>
			<polygon class="st1" points="53.3,11.9 45.2,11.1 45.9,19.6 54,20.4 			"/>
			<polygon class="st1" points="48,44.3 48.7,52 56.3,52.9 55.8,45.2 			"/>
			<polygon class="st1" points="58.2,34.7 58.8,42.7 66.7,43.6 66.2,35.5 			"/>
			<polygon class="st1" points="54.2,23.3 46.1,22.5 46.9,30.7 54.8,31.6 			"/>
			<polygon class="st1" points="89,23.9 88.7,15.1 79.9,14.3 80.3,23.1 			"/>
			<polygon class="st1" points="55,34.4 47.1,33.6 47.8,41.5 55.6,42.4 			"/>
			<polygon class="st1" points="111.3,33.1 111.3,38.2 112.9,36.7 112.9,31.8 			"/>
			<polygon class="st1" points="112.9,8.5 112.8,2.5 111.1,3.6 111.1,9.7 			"/>
			<polygon class="st1" points="105.5,37.6 105.6,44.2 108.4,41.5 108.4,35.1 			"/>
			<polygon class="st1" points="99.4,42.7 99.6,50.1 103.2,46.7 103.1,39.5 			"/>
			<polygon class="st1" points="92.6,48.6 92.9,56.5 97.1,52.5 96.9,44.9 			"/>
			<g>
				<path class="st1" d="M112.8,12.5l-1.7,1.2v3.1l1.7-1.2L112.8,12.5z"/>
				<path class="st1" d="M105.5,34.5l2.9-2.5v-2.8c-1-0.1-2-0.1-3-0.2L105.5,34.5z"/>
				<path class="st1" d="M108.3,15.1l-3,2.1v3.2c1-0.5,2-1.1,3-1.8V15.1z"/>
			</g>
			<polygon class="st1" points="108.3,12.2 108.2,4.8 105.1,6.6 105.2,14.3 			"/>
			<polygon class="st1" points="103,36.8 102.9,29.3 99.2,32.2 99.4,40 			"/>
			<polygon class="st1" points="98.8,10.3 98.9,18.8 102.8,16.2 102.7,8 			"/>
			<polygon class="st1" points="96.9,42.1 96.7,34.2 92.3,37.6 92.6,45.9 			"/>
			<polygon class="st1" points="96.4,20.6 96.2,11.9 91.7,14.6 91.9,23.7 			"/>
			<polygon class="st1" points="85.9,1.1 87.9,0.2 81.4,0.1 79.3,0.9 			"/>
			<polygon class="st1" points="109.2,1.7 111.2,0.5 102.9,0.4 101,1.4 			"/>
			<polygon class="st1" points="80.2,3.7 82.9,2.5 75.9,2.3 73.1,3.4 			"/>
			<polygon class="st1" points="73.6,6.7 77.3,5.1 69.9,4.7 66.1,6.2 			"/>
			<polygon class="st1" points="65.8,10.3 70.6,8.1 62.7,7.6 57.8,9.6 			"/>
			<polygon class="st1" points="97,1.4 99.4,0.1 91.9,0.1 89.5,1.2 			"/>
			<polygon class="st1" points="86.5,2.6 83.5,4 91.3,4.3 94.2,2.8 			"/>
			<polygon class="st1" points="80.6,5.4 76.9,7.1 85,7.6 88.6,5.7 			"/>
			<polygon class="st1" points="77.7,11.5 82.2,9.1 73.9,8.5 69.4,10.7 			"/>
			<polygon class="st1" points="97.4,3 94.1,4.8 103.6,5.3 106.9,3.3 			"/>
			<polygon class="st1" points="91.5,6.2 87.8,8.2 97.3,8.9 101.1,6.7 			"/>
			<polygon class="st1" points="85,9.7 80.8,12 90.5,12.9 94.8,10.4 			"/>
			<polygon class="st1" points="72.2,0 70.4,0.6 76.1,0.7 77.8,0 			"/>
			<polygon class="st1" points="66.5,1.9 63.8,2.8 70,3 72.6,2 			"/>
			<polygon class="st1" points="60,4.2 56.2,5.5 62.9,5.8 66.6,4.4 			"/>
			<polygon class="st1" points="52,7 46.7,8.8 53.9,9.4 59.1,7.4 			"/>
			<polygon class="st1" points="96.6,31.5 96.5,23.2 92,26.3 92.3,34.9 			"/>
		</g>
	</g>
</g>
</svg>
